<svg width="24" height="24" viewBox="0 0 24 24" fill="none" xmlns="http://www.w3.org/2000/svg">
<path d="M4.16634 9.87785L4.8339 10.6224L4.8339 10.6224L4.16634 9.87785ZM19.8474 9.87785L19.1799 10.6224L19.1799 10.6224L19.8474 9.87785ZM12.3407 3.14732L13.0082 2.40276L13.0082 2.40276L12.3407 3.14732ZM11.6731 3.14732L12.3407 3.89187V3.89187L11.6731 3.14732ZM10.0138 19H9.01379V20H10.0138V19ZM14.0138 19V20H15.0138V19H14.0138ZM5.00012 10.2501C5.00012 10.3922 4.93968 10.5276 4.8339 10.6224L3.49878 9.1333C3.18144 9.41783 3.00012 9.82392 3.00012 10.2501H5.00012ZM5.00012 18.5004V10.2501H3.00012V18.5004H5.00012ZM4.50012 18.0004C4.77627 18.0004 5.00012 18.2243 5.00012 18.5004H3.00012C3.00012 19.3289 3.67169 20.0004 4.50012 20.0004V18.0004ZM19.5137 18.0004H4.50012V20.0004H19.5137V18.0004ZM19.0137 18.5004C19.0137 18.2243 19.2375 18.0004 19.5137 18.0004V20.0004C20.3421 20.0004 21.0137 19.3289 21.0137 18.5004H19.0137ZM19.0137 10.2501V18.5004H21.0137V10.2501H19.0137ZM19.1799 10.6224C19.0741 10.5276 19.0137 10.3922 19.0137 10.2501H21.0137C21.0137 9.82392 20.8323 9.41783 20.515 9.1333L19.1799 10.6224ZM11.6731 3.89187L19.1799 10.6224L20.515 9.1333L13.0082 2.40276L11.6731 3.89187ZM12.3407 3.89187C12.1507 4.06217 11.863 4.06217 11.6731 3.89187L13.0082 2.40276C12.4384 1.89187 11.5754 1.89187 11.0055 2.40276L12.3407 3.89187ZM4.8339 10.6224L12.3407 3.89187L11.0055 2.40276L3.49878 9.1333L4.8339 10.6224ZM11.0138 14C11.0138 13.4477 11.4615 13 12.0138 13V11C10.3569 11 9.01379 12.3432 9.01379 14H11.0138ZM11.0138 19V14H9.01379V19H11.0138ZM14.0138 18H10.0138V20H14.0138V18ZM13.0138 14V19H15.0138V14H13.0138ZM12.0138 13C12.5661 13 13.0138 13.4477 13.0138 14H15.0138C15.0138 12.3432 13.6706 11 12.0138 11V13Z" fill="#686868"/>
</svg>
