<svg width="28" height="22" viewBox="0 0 28 22" fill="none" xmlns="http://www.w3.org/2000/svg">
<path fill-rule="evenodd" clip-rule="evenodd" d="M9.00045 8.5006C9.00045 7.17446 9.52726 5.90262 10.465 4.9649C11.4027 4.02717 12.6745 3.50036 14.0007 3.50036C15.3268 3.50036 16.5987 4.02717 17.5364 4.9649C18.4741 5.90262 19.0009 7.17446 19.0009 8.5006V9.75066H20.251C20.8256 9.75066 21.3945 9.86383 21.9253 10.0837C22.4561 10.3036 22.9385 10.6259 23.3447 11.0321C23.751 11.4384 24.0733 11.9207 24.2932 12.4516C24.513 12.9824 24.6262 13.5513 24.6262 14.1259C24.6262 14.7004 24.513 15.2694 24.2932 15.8002C24.0733 16.331 23.751 16.8133 23.3447 17.2196C22.9385 17.6259 22.4561 17.9482 21.9253 18.168C21.3945 18.3879 20.8256 18.5011 20.251 18.5011H19.0009C18.6694 18.5011 18.3514 18.6328 18.117 18.8672C17.8826 19.1017 17.7509 19.4196 17.7509 19.7512C17.7509 20.0827 17.8826 20.4006 18.117 20.6351C18.3514 20.8695 18.6694 21.0012 19.0009 21.0012H20.251C21.975 21.0034 23.6369 20.3579 24.9073 19.1925C26.1778 18.0271 26.9641 16.427 27.1103 14.7092C27.2566 12.9914 26.7522 11.2814 25.6971 9.91799C24.6419 8.5546 23.1131 7.63735 21.4136 7.34805C21.139 5.57907 20.2409 3.96659 18.8814 2.80187C17.522 1.63714 15.7908 0.996964 14.0007 0.996964C12.2105 0.996964 10.4794 1.63714 9.11994 2.80187C7.7605 3.96659 6.86239 5.57907 6.58783 7.34805C4.89385 7.64378 3.3721 8.56335 2.32254 9.9255C1.27297 11.2876 0.77174 12.9935 0.917635 14.7069C1.06353 16.4203 1.84597 18.0169 3.11072 19.182C4.37548 20.3471 6.03079 20.9961 7.75039 21.0012H9.00045C9.33198 21.0012 9.64994 20.8695 9.88437 20.6351C10.1188 20.4006 10.2505 20.0827 10.2505 19.7512C10.2505 19.4196 10.1188 19.1017 9.88437 18.8672C9.64994 18.6328 9.33198 18.5011 9.00045 18.5011H7.75039C7.17583 18.5011 6.60689 18.3879 6.07606 18.168C5.54524 17.9482 5.06292 17.6259 4.65664 17.2196C4.25037 16.8133 3.92809 16.331 3.70822 15.8002C3.48834 15.2694 3.37517 14.7004 3.37517 14.1259C3.37517 13.5513 3.48834 12.9824 3.70822 12.4516C3.92809 11.9207 4.25037 11.4384 4.65664 11.0321C5.06292 10.6259 5.54524 10.3036 6.07606 10.0837C6.60689 9.86383 7.17583 9.75066 7.75039 9.75066H9.00045V8.5006ZM18.6347 12.6171L14.8845 8.86687C14.6501 8.63252 14.3322 8.50087 14.0007 8.50087C13.6692 8.50087 13.3513 8.63252 13.1169 8.86687L9.36672 12.6171C9.24732 12.7324 9.15209 12.8703 9.08657 13.0228C9.02106 13.1753 8.98658 13.3394 8.98513 13.5053C8.98369 13.6713 9.01532 13.8359 9.07817 13.9896C9.14103 14.1432 9.23385 14.2828 9.35122 14.4001C9.46859 14.5175 9.60816 14.6103 9.76179 14.6732C9.91542 14.736 10.08 14.7677 10.246 14.7662C10.412 14.7648 10.576 14.7303 10.7285 14.6648C10.881 14.5993 11.019 14.504 11.1343 14.3846L12.7506 12.7683V19.7512C12.7506 20.0827 12.8823 20.4006 13.1168 20.6351C13.3512 20.8695 13.6692 21.0012 14.0007 21.0012C14.3322 21.0012 14.6502 20.8695 14.8846 20.6351C15.119 20.4006 15.2508 20.0827 15.2508 19.7512V12.7683L16.8671 14.3846C17.1028 14.6123 17.4186 14.7383 17.7464 14.7355C18.0741 14.7327 18.3877 14.6012 18.6194 14.3694C18.8512 14.1376 18.9827 13.8241 18.9855 13.4963C18.9884 13.1686 18.8624 12.8528 18.6347 12.6171Z" fill="#161616"/>
</svg>
